# xmcd CD database file
#
# Track frame offsets:
#	150
#	16059
#	33819
#	49558
#	64633
#	80802
#	94401
#	111928
#	128746
#	159794
#
# Disc length: 2336 seconds
#
# Revision: 0
# Processed by: cddbd v1.5.2PL0 Copyright (c) Steve Scherf et al.
# Submitted via: CDex 1.79
#
DISCID=71091e0a
DTITLE=Brandon Jenkins - VII
DYEAR=2006
DGENRE=Country
TTITLE0=Why Did We Ever Say Goodbye
TTITLE1=Call Of The Road
TTITLE2=Stay Here With Me
TTITLE3=Saturday Night
TTITLE4=When I Look In Your Eyes
TTITLE5=All I Ever Wanted
TTITLE6=Livin' Down On The Line
TTITLE7=The Ghost
TTITLE8=Painted On Smile
TTITLE9=I Still Think of You
EXTD=YEAR: 2006
EXTT0=
EXTT1=
EXTT2=
EXTT3=
EXTT4=
EXTT5=
EXTT6=
EXTT7=
EXTT8=
EXTT9=
PLAYORDER=
